<svg width="108" height="108" viewBox="0 0 108 108" fill="none" xmlns="http://www.w3.org/2000/svg">
<path d="M53.2299 18C56.7594 18 60.3523 19.1859 63.4184 22.2107L63.5405 22.3301C66.1305 24.8355 70.2248 27.2737 75.6746 29.0477L76.3359 29.2637C79.6096 30.3376 82.3894 31.3432 84.4374 33.2739C86.6597 35.3689 87.9469 38.4678 88.3202 43.6188L88.3451 43.9772C88.648 48.5766 88.4198 54.3089 86.8394 60.3303C86.6362 60.2852 86.4316 60.2439 86.2257 60.2064C87.8348 54.0961 88.0335 48.2795 87.6976 43.6606C86.9628 33.5209 82.6689 31.9786 75.4814 29.6376C69.8784 27.8138 65.6486 25.2835 62.9802 22.6516C61.8141 21.5012 60.4827 20.5773 59.0407 19.9061C56.3224 18.6409 54.119 21.4952 54.7165 24.4334C55.5737 28.6482 55.7962 32.6951 56.4474 42.4752C56.7454 46.951 56.7321 51.5074 56.4996 56.0491C59.8387 55.8078 66.0501 55.6737 70.9492 55.3808C71.0126 56.9028 69.2078 59.7071 67.337 59.8656C65.9555 59.9827 62.8753 60.1405 60.7471 60.2056C60.4571 60.2145 60.2211 60.4408 60.2042 60.7304C60.0977 62.5525 59.9641 65.9388 59.6278 68.437C59.2441 71.2866 57.2663 72.7538 54.768 72.8826C54.2272 76.5617 53.6116 80.1452 52.9755 83.5754C52.2783 87.3357 56.3535 89.3125 59.989 88.1849C62.723 87.3368 65.7273 86.0249 68.6966 84.2201C68.7955 84.4047 68.8979 84.5871 69.0035 84.7674C68.4646 85.0946 67.9248 85.406 67.3857 85.7012C62.0825 88.6055 56.8021 90 53.2299 90C49.6575 90 44.3772 88.6044 39.074 85.6996C33.7598 82.7887 28.3686 78.3334 24.6127 72.1589L24.6125 72.1588C18.4656 62.0478 17.5872 51.2113 18.1395 43.6187C18.5129 38.47 19.8002 35.3712 22.0223 33.2758C24.2068 31.2157 27.224 30.2076 30.7852 29.0477L31.0435 28.9627C36.4462 27.1677 40.4994 24.718 43.0415 22.2107C46.1076 19.1859 49.7004 18 53.2299 18Z" fill="#FAB341"/>
<path fill-rule="evenodd" clip-rule="evenodd" d="M54.7165 24.4334C54.1191 21.4953 56.3225 18.641 59.0408 19.9061C60.4827 20.5773 61.8141 21.5012 62.9803 22.6516C65.6486 25.2835 69.8785 27.8138 75.4814 29.6376C82.6689 31.9786 86.9628 33.521 87.6977 43.6606C88.0335 48.2795 87.8348 54.0961 86.2257 60.2064C85.2605 60.0306 84.266 59.9387 83.25 59.9387C74.1374 59.9387 66.75 67.326 66.75 76.4387C66.75 79.2525 67.4548 81.9018 68.6968 84.2199C65.7275 86.0248 62.7231 87.3368 59.9891 88.1849C56.3535 89.3125 52.2784 87.3356 52.9756 83.5754C53.6116 80.1452 54.2272 76.5617 54.768 72.8826C57.2664 72.7538 59.2442 71.2865 59.6278 68.437C59.9641 65.9388 60.0978 62.5525 60.2042 60.7304C60.2211 60.4409 60.4572 60.2145 60.7471 60.2056C62.8753 60.1405 65.9556 59.9827 67.3371 59.8656C69.1372 59.713 70.8759 57.1107 70.9481 55.5584C70.4932 56.5634 69.5143 57.2922 68.3367 57.3717C68.256 57.3769 68.2975 57.3741 68.3229 57.3724L68.3226 57.3726C68.3142 57.3732 68.3021 57.374 68.2865 57.375C68.255 57.3771 68.2088 57.38 68.149 57.3838C68.0291 57.3914 67.8533 57.4024 67.6268 57.416C67.1736 57.4432 66.5164 57.4807 65.6946 57.5226C63.5511 57.6318 61.406 57.7156 59.2605 57.7738C58.6655 57.79 58.1847 58.2646 58.1591 58.8592C58.0276 61.9099 57.805 64.9983 57.4433 67.7906C57.2238 69.4849 55.6723 70.6806 53.9779 70.4612C52.2834 70.2417 51.0877 68.6902 51.3071 66.9957C51.6256 64.5367 51.8306 61.7909 51.9577 59.0266C51.9869 58.3909 51.4791 57.8619 50.8428 57.8553C47.6303 57.8222 44.3433 57.7033 41.3537 57.4398C39.6517 57.2898 38.3934 55.7884 38.5434 54.0864C38.6934 52.3845 40.1948 51.1263 41.8968 51.2763C44.7312 51.5261 47.8918 51.6391 51.0141 51.6692C51.6345 51.6752 52.1399 51.1743 52.1404 50.554C52.1424 48.287 52.1119 46.0199 52.0492 43.7538C52.027 42.9497 52.0049 42.3083 51.9884 41.8698C51.9802 41.6507 51.9734 41.4821 51.9687 41.3694C51.9663 41.3132 51.9646 41.2707 51.9634 41.2429C51.9628 41.2291 51.9622 41.2186 51.9619 41.2121C51.9618 41.2089 51.9618 41.2064 51.9617 41.205L51.9615 41.2037L51.959 41.1238C51.925 39.4519 53.2308 38.0488 54.911 37.972C55.3516 37.9519 55.7748 38.0252 56.1616 38.174C55.7079 31.3882 55.4357 27.9699 54.7165 24.4334ZM68.3324 57.3719C68.3308 57.372 68.3284 57.3721 68.3257 57.3722C68.3008 57.3739 68.2531 57.3771 68.3361 57.3717H68.3352C68.3345 57.3717 68.3335 57.3718 68.3324 57.3719Z" fill="#FFC95C"/>
<path d="M62.7019 21.5455C62.9467 21.7575 63.1858 21.9781 63.4183 22.2074C66.0008 24.7546 70.1381 27.2421 75.6742 29.0442L75.6744 29.0444C79.2354 30.2042 82.2526 31.2112 84.4371 33.2706C86.2078 34.94 87.3849 37.247 87.9789 40.7217C87.3847 37.2488 86.2077 34.9428 84.4375 33.2739C82.3895 31.3432 79.6096 30.3375 76.336 29.2637L75.6746 29.0477C70.2248 27.2737 66.1305 24.8355 63.5406 22.3301L63.4184 22.2107C63.1827 21.9781 62.9436 21.7566 62.7019 21.5455Z" fill="#FFC95C"/>
<path d="M36.5886 83.6888C36.6477 83.6759 36.7094 83.6868 36.7607 83.7183C37.9119 84.4249 39.1001 85.0643 40.3181 85.6369C44.3837 87.522 48.8133 88.821 53.2309 88.8548C56.8524 88.7608 60.46 87.6015 63.8296 86.1281C65.4114 85.4222 66.9523 84.6149 68.436 83.7128C68.6048 84.0559 68.7851 84.3923 68.9765 84.7215C67.4674 85.6369 65.9012 86.4563 64.2939 87.1738C60.8165 88.6888 57.122 89.8609 53.2309 89.8955C48.5549 89.7689 44.102 88.2942 40.0347 86.2092C38.8197 85.5765 37.6425 84.8743 36.5112 84.1039C36.4614 84.07 36.4262 84.0182 36.4137 83.9591C36.4013 83.8999 36.4127 83.8382 36.4454 83.7877C36.4781 83.7372 36.5296 83.7017 36.5886 83.6888Z" fill="#783B13"/>
<path d="M67.1454 80.0457C67.2048 80.3121 67.2707 80.5761 67.3428 80.8375C66.8142 81.1652 66.2781 81.4799 65.7353 81.7807C64.3545 82.544 62.9249 83.2144 61.4536 83.78C60.0641 84.3134 58.6375 84.7552 57.1829 85.0736C57.1126 85.089 57.039 85.0763 56.978 85.0379C56.917 84.9996 56.8736 84.9388 56.8575 84.8687C56.8414 84.7987 56.8536 84.7248 56.8917 84.6637C56.9298 84.6025 56.9907 84.559 57.0605 84.5421C58.4766 84.1983 59.8663 83.7345 61.2172 83.1831C62.6478 82.5983 64.0354 81.9131 65.3728 81.1398C65.9733 80.7918 66.5645 80.4267 67.1454 80.0457Z" fill="#783B13"/>
<path d="M53.2316 18.0632C56.9847 18.0169 60.7448 19.592 63.3762 22.2554C63.4182 22.2969 63.4609 22.3384 63.5038 22.3798C66.8999 25.5544 71.3568 27.5145 75.8188 29.0518C78.8758 30.1191 82.1857 31.0931 84.6472 33.4859C86.2562 35.0507 87.184 37.1581 87.6428 39.2788C87.6545 39.3317 87.6456 39.3876 87.6172 39.434C87.5887 39.4805 87.5431 39.5138 87.4905 39.5267C87.4378 39.5396 87.3821 39.5311 87.3354 39.5031C87.2887 39.475 87.255 39.4296 87.2409 39.3773C86.6954 37.3237 85.725 35.3772 84.1772 33.979C81.82 31.8389 78.6037 30.967 75.5194 29.971C70.9443 28.4983 66.3651 26.5798 62.7249 23.1886C62.6787 23.1441 62.6329 23.0994 62.5876 23.0547C60.1296 20.5769 56.7183 19.1497 53.2316 19.185C49.745 19.149 46.333 20.5755 43.8742 23.0532C40.2929 26.5096 35.7606 28.646 31.1524 30.17C27.9606 31.2384 24.5921 32.1972 22.397 34.572C20.1989 36.9443 19.5661 40.3983 19.3126 43.7041C19.0574 47.2045 19.1225 50.7404 19.5514 54.2236C20.3001 60.3538 22.1424 66.378 25.2912 71.7254C26.2842 73.4153 27.3897 75.0414 28.6171 76.572C29.9532 78.2373 31.435 79.7918 33.0761 81.161C33.1136 81.1923 33.1373 81.2376 33.142 81.2865C33.1467 81.3353 33.1322 81.3839 33.1014 81.4218C33.0705 81.4596 33.0259 81.4838 32.977 81.4892C32.9282 81.4944 32.8791 81.4804 32.8408 81.45C31.1464 80.1017 29.6013 78.5689 28.1962 76.9201C26.9054 75.4047 25.7318 73.7894 24.6705 72.103C21.3005 66.7633 19.2328 60.6246 18.4654 54.3579C18.0249 50.7985 17.9568 47.1925 18.2147 43.6242C18.4816 40.2337 19.0941 36.536 21.5833 33.8217C24.0973 31.1327 27.6268 30.194 30.808 29.1122C35.306 27.6272 39.7186 25.519 43.0887 22.2569C45.7193 19.5933 49.4785 18.0177 53.2316 18.0632Z" fill="#783B13"/>
<path d="M22.6398 43.1185C22.7041 43.1232 22.7641 43.1533 22.807 43.2022C22.8499 43.251 22.8717 43.3147 22.8698 43.3792C22.8522 43.9659 22.8436 44.5644 22.8449 45.1511C22.8592 50.5233 23.6228 55.8618 25.2674 60.9237C26.2104 63.8242 27.4493 66.6238 28.9903 69.2636C30.0779 71.1282 31.3665 72.8825 32.8132 74.5072C33.2042 74.9464 33.6068 75.3763 34.02 75.7966C34.0739 75.8514 34.1061 75.925 34.1079 76.0024C34.1097 76.0797 34.0811 76.1545 34.0284 76.2104C33.9758 76.2663 33.9029 76.2993 33.8256 76.3021C33.7482 76.305 33.6728 76.2772 33.6148 76.2267C33.1631 75.8323 32.7218 75.4246 32.2924 75.0041C30.7037 73.4487 29.2758 71.7135 28.0709 69.8255C26.3786 67.1766 25.0375 64.3045 24.0658 61.3144C22.3683 56.0945 21.7995 50.5531 22.204 45.1275C22.2486 44.5348 22.3058 43.932 22.3743 43.343C22.3818 43.2789 22.4127 43.219 22.4622 43.1769C22.5117 43.1348 22.5756 43.1138 22.6398 43.1185Z" fill="#783B13"/>
<path d="M38.0331 54.0416C38.1656 52.1238 40.0467 50.5714 41.939 50.7959C42.7405 50.872 43.5446 50.9353 44.3495 50.9893C45.3245 51.0545 46.3013 51.106 47.2789 51.1471C47.3957 51.152 47.5063 51.2026 47.5861 51.2883C47.6659 51.374 47.7085 51.4878 47.7046 51.6047C47.7006 51.7215 47.6503 51.8322 47.5649 51.9123C47.4794 51.9924 47.3656 52.0353 47.2486 52.0322C46.264 52.0066 45.2792 51.9699 44.2942 51.9184C43.4809 51.8758 42.6673 51.8232 41.8542 51.757C40.4705 51.6124 39.1304 52.7594 39.0532 54.1315C38.9083 55.4992 40.041 56.8277 41.4004 56.9061C44.5355 57.1659 47.6921 57.2614 50.8483 57.2894C51.7655 57.2742 52.5902 58.1252 52.5261 59.0529C52.4307 61.1865 52.2905 63.3206 52.0658 65.452C52.0087 65.9913 51.9458 66.5311 51.8757 67.0696C51.6695 68.3954 52.7119 69.7557 54.0503 69.9C55.3795 70.1102 56.7502 69.0674 56.8989 67.7202C57.2899 64.7823 57.5124 61.8116 57.6664 58.8381C57.6897 58.0126 58.4275 57.2953 59.2474 57.2952C59.6372 57.2881 60.0272 57.2801 60.417 57.2714C61.3968 57.2496 62.3766 57.223 63.3563 57.1916C63.4722 57.1879 63.5854 57.2297 63.6708 57.3084C63.7562 57.3872 63.8071 57.4965 63.812 57.6124C63.8169 57.7282 63.7754 57.8414 63.697 57.9271C63.6186 58.0129 63.5093 58.064 63.3934 58.0701C62.4115 58.1218 61.4291 58.1678 60.4465 58.2077C60.0555 58.2235 59.6644 58.2383 59.2734 58.2523C58.9418 58.2588 58.6531 58.5556 58.6514 58.8806C58.5441 61.8754 58.3579 64.8725 57.9874 67.8612C57.7921 69.7925 55.8338 71.3149 53.9049 71.0225C51.9646 70.8229 50.4415 68.8546 50.7379 66.9222C50.806 66.3935 50.8677 65.8625 50.9239 65.3312C51.1454 63.231 51.2878 61.1172 51.389 59.0007C51.4127 58.703 51.1438 58.4174 50.8366 58.4212C47.6605 58.3802 44.481 58.2644 41.3063 57.9738C39.3757 57.8426 37.809 55.95 38.0331 54.0416Z" fill="#783B13"/>
<path d="M88.0632 43.4402C88.1121 43.4366 88.1605 43.4527 88.198 43.4847C88.2355 43.5167 88.259 43.5621 88.2632 43.6109C88.3787 44.9645 88.4324 46.3364 88.4294 47.6978C88.416 51.9361 87.8735 56.1985 86.7797 60.3172C86.49 60.2541 86.1974 60.1987 85.9022 60.151C87.107 56.1158 87.7989 51.9177 87.9418 47.6895C87.9855 46.3426 87.9708 44.9822 87.8902 43.638C87.8873 43.5891 87.9041 43.5408 87.9365 43.5037C87.969 43.4667 88.0144 43.4438 88.0632 43.4402Z" fill="#783B13"/>
<path d="M57.8534 23.3515C57.9143 23.344 57.9758 23.3607 58.0248 23.3971C58.585 23.8165 59.0926 24.2845 59.5918 24.7536C60.1621 25.2901 60.7571 25.8012 61.371 26.2883C65.4968 29.5401 70.3407 31.7642 75.3303 33.3628C77.8244 34.2957 80.5561 34.6084 82.7349 36.9193C82.745 36.9323 82.7555 36.9456 82.7658 36.9592C84.136 38.9882 84.2508 41.1911 84.4529 43.3117C84.8475 48.8778 84.33 54.5671 82.779 59.9455C82.3772 59.9568 81.979 59.9824 81.585 60.0219C83.1369 54.6546 83.6437 48.9684 83.2367 43.3994C83.0662 41.3807 82.8234 39.1821 81.7897 37.7028C81.7823 37.6932 81.775 37.6837 81.7671 37.6737C80.2896 35.9984 77.3853 35.3671 74.9681 34.4715C69.9006 32.7638 65.0013 30.3326 60.9327 26.8155C60.3276 26.2891 59.7443 25.7378 59.189 25.1606C58.7189 24.6725 58.2458 24.1899 57.736 23.7641C57.6891 23.725 57.6582 23.6692 57.6512 23.6082C57.6443 23.5473 57.6617 23.4861 57.6994 23.4381C57.7372 23.3902 57.7925 23.3591 57.8534 23.3515Z" fill="#783B13"/>
<path fill-rule="evenodd" clip-rule="evenodd" d="M54.8867 37.445C56.799 37.3045 58.6157 38.9366 58.6849 40.8595C58.6865 40.8739 58.6874 40.8879 58.6867 40.9009C58.6869 40.904 58.6871 40.9081 58.6872 40.9113C58.6881 40.9312 58.6884 40.9385 58.6889 40.9487C58.691 40.994 58.6932 41.0418 58.6953 41.0888C58.7031 41.2655 58.7106 41.4416 58.7176 41.6178C58.7437 42.268 58.7659 42.9175 58.7852 43.5676C58.8534 45.8608 58.8874 48.1553 58.887 50.4497C58.8866 50.6038 58.949 50.751 59.0584 50.858C59.1677 50.9651 59.3142 51.0232 59.4667 51.0186C61.4289 50.9634 63.3908 50.8894 65.3516 50.7963C65.9763 50.7666 66.6004 50.7351 67.224 50.7005C67.3896 50.6913 67.5551 50.6819 67.7202 50.6721C67.7622 50.6696 67.8051 50.6672 67.8453 50.6648C67.8532 50.6643 67.8563 50.6639 67.8758 50.6626C67.8773 50.6625 67.8794 50.6625 67.8815 50.6624C67.8823 50.6624 67.8831 50.6623 67.8837 50.6622C69.8123 50.494 71.6512 52.1245 71.7218 54.0426C71.8773 55.904 70.3531 57.6847 68.5123 57.8264C68.4645 57.8312 68.4162 57.8349 68.3668 57.8378C68.1292 57.8509 67.8916 57.8635 67.6541 57.8753C67.0308 57.9064 66.4081 57.9339 65.7848 57.959C65.6687 57.9637 65.555 57.9229 65.4687 57.8447C65.3825 57.7666 65.3308 57.6575 65.3248 57.5415C65.3189 57.4256 65.3593 57.3118 65.4371 57.2253C65.5149 57.1388 65.6238 57.0866 65.7397 57.0794C66.3601 57.0407 66.9798 57.0002 67.599 56.9569C67.8348 56.9403 68.0706 56.9233 68.305 56.9058C68.3409 56.903 68.3765 56.8994 68.4118 56.8952C69.7645 56.7634 70.8413 55.4428 70.7079 54.111C70.6364 52.7362 69.3116 51.6021 67.9581 51.734C67.9567 51.7341 67.9553 51.7343 67.9544 51.7343C67.9515 51.7345 67.9489 51.7346 67.9469 51.7347C67.9452 51.7349 67.928 51.7362 67.9158 51.7371C67.8721 51.7401 67.8308 51.743 67.7889 51.7459C67.622 51.7573 67.4553 51.7683 67.2886 51.779C66.6613 51.8193 66.0347 51.856 65.4074 51.8902C63.439 51.9972 61.4692 52.079 59.4988 52.1362C59.0504 52.1522 58.5939 51.9724 58.2758 51.6572C57.9542 51.3455 57.7657 50.8961 57.7686 50.4491C57.7701 48.1653 57.7414 45.8812 57.6831 43.598C57.6665 42.9511 57.6475 42.3048 57.6251 41.6588C57.6196 41.5011 57.6139 41.3433 57.6078 41.1862C57.5469 41.0614 57.5354 40.9131 57.5882 40.7725C57.4649 39.4904 56.2402 38.4142 54.9349 38.4991C53.5927 38.5211 52.4138 39.7603 52.4635 41.1137L52.4655 41.1875C52.4655 41.1882 52.4655 41.189 52.4655 41.1897C52.4657 41.1945 52.4663 41.2094 52.4668 41.221C52.4684 41.2646 52.47 41.3063 52.4715 41.3484C52.4776 41.5159 52.4832 41.6837 52.4886 41.8512C52.5086 42.4812 52.5248 43.1105 52.5384 43.7403C52.5873 46.0114 52.6019 48.2832 52.5818 50.5544C52.5812 50.6457 52.5726 50.7375 52.556 50.8278C52.4339 51.5549 51.7393 52.1213 51.0098 52.0963C50.6293 52.0894 50.2487 52.0813 49.8682 52.0718C49.758 52.069 49.6529 52.0232 49.5763 51.9438C49.4997 51.8644 49.4577 51.7579 49.4595 51.6477C49.4613 51.5376 49.5068 51.4325 49.586 51.3557C49.6652 51.2788 49.7716 51.2364 49.8817 51.2372C50.2604 51.2401 50.6393 51.2417 51.0181 51.2421C51.3438 51.2475 51.6436 50.9875 51.6895 50.6734C51.696 50.6342 51.6991 50.5941 51.6987 50.5537C51.6826 48.2909 51.6361 46.0285 51.5597 43.7674C51.5385 43.1406 51.5148 42.5143 51.4879 41.8886C51.4807 41.7224 51.4732 41.5564 51.4654 41.3905C51.4634 41.3484 51.4615 41.3054 51.4595 41.2649C51.4591 41.2561 51.4587 41.2503 51.4579 41.2347C51.4574 41.2258 51.4569 41.1988 51.4577 41.2266C51.4575 41.224 51.4572 41.2216 51.4571 41.2199C51.4562 41.1933 51.4552 41.1666 51.4542 41.14C51.4542 41.1387 51.4541 41.1353 51.454 41.1342C51.364 39.2517 52.9905 37.4949 54.8867 37.445ZM57.5985 40.9505C57.5979 40.963 57.5985 40.9764 57.6 40.9902C57.5995 40.9776 57.5992 40.964 57.5991 40.96C57.5989 40.958 57.5987 40.9549 57.5985 40.9505Z" fill="#783B13"/>
<path d="M71.8679 49.4563C72.4199 49.4919 72.9579 49.7888 73.311 50.2208C73.6607 50.6428 73.8552 51.1845 73.8509 51.7186C73.8505 51.7784 73.8476 51.8382 73.8423 51.8975C73.8341 51.9688 73.8077 52.0393 73.7598 52.0943C73.7118 52.1493 73.6469 52.1843 73.577 52.1919C73.5071 52.1994 73.4362 52.1792 73.3776 52.1357C73.319 52.0922 73.2782 52.0288 73.2549 51.9608C73.2384 51.9163 73.2211 51.8724 73.2031 51.8294C73.0417 51.4455 72.8314 51.1138 72.5882 50.8181C72.3381 50.5179 72.0644 50.2451 71.7035 50.0124C71.6636 49.987 71.6229 49.9621 71.5806 49.9379C71.5281 49.9098 71.4806 49.8696 71.4506 49.8172C71.4207 49.7649 71.4104 49.705 71.4228 49.6488C71.4352 49.5926 71.4694 49.5427 71.5185 49.5078C71.5677 49.4728 71.6278 49.4561 71.6872 49.4527C71.7473 49.451 71.8075 49.4521 71.8679 49.4563Z" fill="#783B13"/>
<path d="M52.4796 22.2091C52.8641 22.1988 53.2485 22.2192 53.626 22.273C53.6795 22.2808 53.7298 22.3067 53.7657 22.3479C53.8016 22.3892 53.8202 22.4422 53.8174 22.4959C53.8145 22.5496 53.7904 22.6004 53.7504 22.6376C53.7103 22.6748 53.6576 22.6952 53.6037 22.6973C53.2456 22.7121 52.891 22.7537 52.5419 22.8183C51.6335 22.9868 50.7656 23.3077 49.9376 23.711L49.9399 23.71C49.0421 24.1539 48.239 24.7636 47.5231 25.4761C47.4096 25.5887 47.2934 25.7013 47.1769 25.8115C43.8573 28.9335 39.8372 31.1558 35.661 32.773C35.3148 32.9065 34.9669 33.0356 34.6168 33.161C34.5344 33.1905 34.4432 33.1881 34.3628 33.1526C34.2823 33.117 34.2192 33.0514 34.1872 32.97C34.1552 32.8887 34.1566 32.7977 34.1912 32.7168C34.2259 32.636 34.291 32.572 34.3714 32.5374C34.7086 32.3922 35.0434 32.2442 35.3763 32.0932C39.393 30.2631 43.2245 27.9856 46.4038 24.9943C46.5155 24.8887 46.6275 24.7814 46.7371 24.6752C47.5393 23.8932 48.4955 23.2375 49.5528 22.8271C49.5534 22.8269 49.5547 22.8264 49.5552 22.8262C50.4861 22.4696 51.4782 22.2356 52.4796 22.2091Z" fill="#783B13"/>
<path d="M13.2803 40.4267C13.352 40.4041 13.4305 40.3992 13.5035 40.4216C13.5765 40.4439 13.6377 40.4909 13.6747 40.5543C13.7118 40.6178 13.7226 40.6943 13.7061 40.7689C13.6896 40.8435 13.6466 40.9094 13.5916 40.9606C13.5379 41.0105 13.4836 41.0597 13.429 41.1082C12.9377 41.545 12.4138 41.9259 11.8571 42.2506C11.3003 42.5753 10.7077 42.8384 10.0789 43.0396C10.0091 43.0619 9.9387 43.0834 9.86798 43.1042C9.80193 43.1235 9.72984 43.1274 9.66309 43.1066C9.59641 43.0859 9.54067 43.0431 9.5069 42.9852C9.47311 42.9273 9.46331 42.8576 9.47815 42.7893C9.49296 42.721 9.53159 42.6602 9.58087 42.6122C9.63383 42.5609 9.68743 42.5104 9.74127 42.4606C10.226 42.0125 10.7468 41.6261 11.3035 41.3014C11.8602 40.9767 12.4496 40.708 13.0718 40.4955C13.1409 40.4719 13.2104 40.4489 13.2803 40.4267Z" fill="#B66A1F"/>
<path d="M9.12128 31.9394C9.18369 31.9063 9.25597 31.8971 9.32489 31.9057C9.40915 31.9164 9.49316 31.9281 9.57684 31.9405C10.3302 32.0519 11.0601 32.2306 11.7664 32.477C12.4727 32.7233 13.1576 33.0312 13.821 33.4002C13.8947 33.4412 13.9683 33.4828 14.0415 33.5253C14.107 33.5634 14.1627 33.62 14.1938 33.6906C14.225 33.7611 14.2292 33.8392 14.2047 33.9096C14.1801 33.98 14.1282 34.0385 14.06 34.0744C13.9918 34.1103 13.9129 34.1198 13.8379 34.109C13.7542 34.0968 13.6706 34.0836 13.5874 34.0698C12.8384 33.9461 12.1105 33.761 11.4042 33.5146C10.698 33.2683 10.0154 32.9544 9.3562 32.5731C9.28298 32.5308 9.21003 32.4875 9.13739 32.4435C9.07807 32.4074 9.02706 32.3553 8.99878 32.2906C8.97054 32.2259 8.96671 32.1547 8.98908 32.0904C9.01151 32.0261 9.05888 31.9724 9.12128 31.9394Z" fill="#B66A1F"/>
<path d="M15.9912 23.9628C16.0533 23.9327 16.1255 23.9282 16.1935 23.9494C16.2616 23.9706 16.3192 24.0161 16.3607 24.0726C16.4188 24.152 16.4763 24.2318 16.5328 24.3119C17.0416 25.0337 17.4859 25.7868 17.866 26.5709C18.2461 27.355 18.5681 28.1675 18.8314 29.0082C18.8606 29.1016 18.8891 29.1954 18.9169 29.2895C18.9384 29.3628 18.9389 29.4431 18.9112 29.5158C18.8836 29.5885 18.8308 29.6475 18.7629 29.6804C18.6949 29.7134 18.6159 29.7184 18.5417 29.6951C18.4675 29.6718 18.405 29.6216 18.3608 29.5592C18.3041 29.4791 18.2481 29.3985 18.1929 29.3177C17.6959 28.5902 17.2574 27.8344 16.8773 27.0503C16.4971 26.2661 16.1812 25.4509 15.9297 24.6044C15.9017 24.5103 15.8747 24.4157 15.8484 24.3209C15.8298 24.2534 15.8296 24.18 15.8552 24.1135C15.8807 24.0469 15.929 23.9929 15.9912 23.9628Z" fill="#B66A1F"/>
<path d="M83.25 90C90.7058 90 96.75 83.9558 96.75 76.5C96.75 69.0442 90.7058 63 83.25 63C75.7942 63 69.75 69.0442 69.75 76.5C69.75 83.9558 75.7942 90 83.25 90Z" fill="#39B25E"/>
<path d="M88.3582 71.3464C88.7371 70.8539 89.4434 70.7617 89.9359 71.1406C90.4283 71.5194 90.5205 72.2257 90.1417 72.7182L83.2047 81.7363C82.4791 82.6797 81.0694 82.717 80.2948 81.8134L76.3958 77.2643C75.9915 76.7926 76.0462 76.0824 76.5179 75.6781C76.9897 75.2738 77.6998 75.3285 78.1042 75.8002L81.7027 79.9985L88.3582 71.3464Z" fill="white"/>
</svg>
